<mxfile host="app.diagrams.net" modified="2023-08-09T03:50:12.665Z" agent="Mozilla/5.0 (Windows NT 10.0; Win64; x64) AppleWebKit/537.36 (KHTML, like Gecko) Chrome/115.0.0.0 Safari/537.36 Edg/115.0.1901.188" etag="aMW7fh_0v67S-EMDRxPx" version="21.6.7" type="device">
  <diagram name="Page-1" id="oFE_3LYw02PxmboLN4aH">
    <mxGraphModel dx="2868" dy="1576" grid="1" gridSize="10" guides="1" tooltips="1" connect="1" arrows="1" fold="1" page="1" pageScale="1" pageWidth="3300" pageHeight="4681" math="0" shadow="0">
      <root>
        <mxCell id="0" />
        <mxCell id="1" parent="0" />
        <mxCell id="1fBMuFGvleZSVorCwz0i-1" value="START&lt;br&gt;Init Device" style="rounded=0;whiteSpace=wrap;html=1;" vertex="1" parent="1">
          <mxGeometry x="590" y="310" width="80" height="50" as="geometry" />
        </mxCell>
        <mxCell id="1fBMuFGvleZSVorCwz0i-3" value="Reset time" style="rounded=0;whiteSpace=wrap;html=1;" vertex="1" parent="1">
          <mxGeometry x="590" y="400" width="80" height="40" as="geometry" />
        </mxCell>
        <mxCell id="1fBMuFGvleZSVorCwz0i-6" value="" style="rounded=0;html=1;jettySize=auto;orthogonalLoop=1;fontSize=11;endArrow=block;endFill=0;endSize=8;strokeWidth=1;shadow=0;labelBackgroundColor=none;edgeStyle=orthogonalEdgeStyle;exitX=0.5;exitY=1;exitDx=0;exitDy=0;" edge="1" parent="1" source="1fBMuFGvleZSVorCwz0i-3" target="1fBMuFGvleZSVorCwz0i-10">
          <mxGeometry relative="1" as="geometry">
            <mxPoint x="629.9999999999998" y="450" as="sourcePoint" />
          </mxGeometry>
        </mxCell>
        <mxCell id="1fBMuFGvleZSVorCwz0i-8" value="Yes" style="rounded=0;html=1;jettySize=auto;orthogonalLoop=1;fontSize=11;endArrow=block;endFill=0;endSize=8;strokeWidth=1;shadow=0;labelBackgroundColor=none;edgeStyle=orthogonalEdgeStyle;" edge="1" parent="1" source="1fBMuFGvleZSVorCwz0i-10" target="1fBMuFGvleZSVorCwz0i-14">
          <mxGeometry y="20" relative="1" as="geometry">
            <mxPoint as="offset" />
          </mxGeometry>
        </mxCell>
        <mxCell id="1fBMuFGvleZSVorCwz0i-9" value="No" style="edgeStyle=orthogonalEdgeStyle;rounded=0;html=1;jettySize=auto;orthogonalLoop=1;fontSize=11;endArrow=block;endFill=0;endSize=8;strokeWidth=1;shadow=0;labelBackgroundColor=none;" edge="1" parent="1" source="1fBMuFGvleZSVorCwz0i-10" target="1fBMuFGvleZSVorCwz0i-11">
          <mxGeometry y="10" relative="1" as="geometry">
            <mxPoint as="offset" />
          </mxGeometry>
        </mxCell>
        <mxCell id="1fBMuFGvleZSVorCwz0i-10" value="Time &amp;lt; 3s" style="rhombus;whiteSpace=wrap;html=1;shadow=0;fontFamily=Helvetica;fontSize=12;align=center;strokeWidth=1;spacing=6;spacingTop=-4;" vertex="1" parent="1">
          <mxGeometry x="580" y="470" width="100" height="80" as="geometry" />
        </mxCell>
        <mxCell id="1fBMuFGvleZSVorCwz0i-11" value="Jump to application user&lt;br&gt;current" style="rounded=1;whiteSpace=wrap;html=1;fontSize=12;glass=0;strokeWidth=1;shadow=0;" vertex="1" parent="1">
          <mxGeometry x="740" y="490" width="150" height="40" as="geometry" />
        </mxCell>
        <mxCell id="1fBMuFGvleZSVorCwz0i-12" value="No" style="rounded=0;html=1;jettySize=auto;orthogonalLoop=1;fontSize=11;endArrow=block;endFill=0;endSize=8;strokeWidth=1;shadow=0;labelBackgroundColor=none;edgeStyle=orthogonalEdgeStyle;exitX=0;exitY=0.5;exitDx=0;exitDy=0;" edge="1" parent="1" source="1fBMuFGvleZSVorCwz0i-14">
          <mxGeometry x="-0.0476" y="-10" relative="1" as="geometry">
            <mxPoint as="offset" />
            <mxPoint x="630" y="450" as="targetPoint" />
            <Array as="points">
              <mxPoint x="540" y="630" />
              <mxPoint x="540" y="450" />
              <mxPoint x="630" y="450" />
            </Array>
          </mxGeometry>
        </mxCell>
        <mxCell id="1fBMuFGvleZSVorCwz0i-13" value="Yes" style="edgeStyle=orthogonalEdgeStyle;rounded=0;html=1;jettySize=auto;orthogonalLoop=1;fontSize=11;endArrow=block;endFill=0;endSize=8;strokeWidth=1;shadow=0;labelBackgroundColor=none;" edge="1" parent="1" source="1fBMuFGvleZSVorCwz0i-14" target="1fBMuFGvleZSVorCwz0i-16">
          <mxGeometry y="10" relative="1" as="geometry">
            <mxPoint as="offset" />
          </mxGeometry>
        </mxCell>
        <mxCell id="1fBMuFGvleZSVorCwz0i-14" value="Valid Flag&lt;br&gt;Update ?" style="rhombus;whiteSpace=wrap;html=1;shadow=0;fontFamily=Helvetica;fontSize=12;align=center;strokeWidth=1;spacing=6;spacingTop=-4;" vertex="1" parent="1">
          <mxGeometry x="580" y="590" width="100" height="80" as="geometry" />
        </mxCell>
        <mxCell id="1fBMuFGvleZSVorCwz0i-16" value="Earse Flash Memory" style="rounded=1;whiteSpace=wrap;html=1;fontSize=12;glass=0;strokeWidth=1;shadow=0;" vertex="1" parent="1">
          <mxGeometry x="570" y="710" width="120" height="40" as="geometry" />
        </mxCell>
        <mxCell id="1fBMuFGvleZSVorCwz0i-17" value="" style="rounded=0;html=1;jettySize=auto;orthogonalLoop=1;fontSize=11;endArrow=block;endFill=0;endSize=8;strokeWidth=1;shadow=0;labelBackgroundColor=none;edgeStyle=orthogonalEdgeStyle;exitX=0.5;exitY=1;exitDx=0;exitDy=0;entryX=0.5;entryY=0;entryDx=0;entryDy=0;" edge="1" parent="1" source="1fBMuFGvleZSVorCwz0i-1" target="1fBMuFGvleZSVorCwz0i-3">
          <mxGeometry relative="1" as="geometry">
            <mxPoint x="640" y="450" as="sourcePoint" />
            <mxPoint x="640" y="500" as="targetPoint" />
          </mxGeometry>
        </mxCell>
        <mxCell id="1fBMuFGvleZSVorCwz0i-21" value="Yes" style="rounded=0;html=1;jettySize=auto;orthogonalLoop=1;fontSize=11;endArrow=block;endFill=0;endSize=8;strokeWidth=1;shadow=0;labelBackgroundColor=none;edgeStyle=orthogonalEdgeStyle;entryX=0.5;entryY=0;entryDx=0;entryDy=0;" edge="1" parent="1" source="1fBMuFGvleZSVorCwz0i-23" target="1fBMuFGvleZSVorCwz0i-27">
          <mxGeometry x="-0.208" y="10" relative="1" as="geometry">
            <mxPoint as="offset" />
            <mxPoint x="630" y="1090" as="targetPoint" />
          </mxGeometry>
        </mxCell>
        <mxCell id="1fBMuFGvleZSVorCwz0i-22" value="No" style="edgeStyle=orthogonalEdgeStyle;rounded=0;html=1;jettySize=auto;orthogonalLoop=1;fontSize=11;endArrow=block;endFill=0;endSize=8;strokeWidth=1;shadow=0;labelBackgroundColor=none;" edge="1" parent="1" source="1fBMuFGvleZSVorCwz0i-23">
          <mxGeometry y="10" relative="1" as="geometry">
            <mxPoint as="offset" />
            <mxPoint x="520" y="930" as="targetPoint" />
          </mxGeometry>
        </mxCell>
        <mxCell id="1fBMuFGvleZSVorCwz0i-23" value="Checksum&lt;br&gt;ok ?" style="rhombus;whiteSpace=wrap;html=1;shadow=0;fontFamily=Helvetica;fontSize=12;align=center;strokeWidth=1;spacing=6;spacingTop=-4;" vertex="1" parent="1">
          <mxGeometry x="580" y="890" width="100" height="80" as="geometry" />
        </mxCell>
        <mxCell id="1fBMuFGvleZSVorCwz0i-27" value="Write Flash Memory" style="rounded=1;whiteSpace=wrap;html=1;fontSize=12;glass=0;strokeWidth=1;shadow=0;" vertex="1" parent="1">
          <mxGeometry x="570" y="1020" width="120" height="40" as="geometry" />
        </mxCell>
        <mxCell id="1fBMuFGvleZSVorCwz0i-28" value="Receive a hex file" style="rounded=1;whiteSpace=wrap;html=1;fontSize=12;glass=0;strokeWidth=1;shadow=0;" vertex="1" parent="1">
          <mxGeometry x="570" y="800" width="120" height="40" as="geometry" />
        </mxCell>
        <mxCell id="1fBMuFGvleZSVorCwz0i-29" value="" style="edgeStyle=orthogonalEdgeStyle;rounded=0;html=1;jettySize=auto;orthogonalLoop=1;fontSize=11;endArrow=block;endFill=0;endSize=8;strokeWidth=1;shadow=0;labelBackgroundColor=none;entryX=0.5;entryY=0;entryDx=0;entryDy=0;exitX=0.5;exitY=1;exitDx=0;exitDy=0;" edge="1" parent="1" source="1fBMuFGvleZSVorCwz0i-16" target="1fBMuFGvleZSVorCwz0i-28">
          <mxGeometry y="10" relative="1" as="geometry">
            <mxPoint as="offset" />
            <mxPoint x="629.71" y="800" as="sourcePoint" />
            <mxPoint x="629.71" y="860" as="targetPoint" />
          </mxGeometry>
        </mxCell>
        <mxCell id="1fBMuFGvleZSVorCwz0i-30" value="" style="edgeStyle=orthogonalEdgeStyle;rounded=0;html=1;jettySize=auto;orthogonalLoop=1;fontSize=11;endArrow=block;endFill=0;endSize=8;strokeWidth=1;shadow=0;labelBackgroundColor=none;exitX=0.5;exitY=1;exitDx=0;exitDy=0;entryX=0.5;entryY=0;entryDx=0;entryDy=0;" edge="1" parent="1" source="1fBMuFGvleZSVorCwz0i-28" target="1fBMuFGvleZSVorCwz0i-23">
          <mxGeometry y="10" relative="1" as="geometry">
            <mxPoint as="offset" />
            <mxPoint x="629.71" y="900" as="sourcePoint" />
            <mxPoint x="670" y="950" as="targetPoint" />
          </mxGeometry>
        </mxCell>
        <mxCell id="1fBMuFGvleZSVorCwz0i-33" value="" style="rounded=0;html=1;jettySize=auto;orthogonalLoop=1;fontSize=11;endArrow=block;endFill=0;endSize=8;strokeWidth=1;shadow=0;labelBackgroundColor=none;edgeStyle=orthogonalEdgeStyle;exitX=0.5;exitY=1;exitDx=0;exitDy=0;entryX=0.5;entryY=0;entryDx=0;entryDy=0;" edge="1" parent="1" source="1fBMuFGvleZSVorCwz0i-27" target="1fBMuFGvleZSVorCwz0i-34">
          <mxGeometry x="-0.1429" y="30" relative="1" as="geometry">
            <mxPoint as="offset" />
            <mxPoint x="620" y="1160" as="sourcePoint" />
            <mxPoint x="630" y="1190" as="targetPoint" />
          </mxGeometry>
        </mxCell>
        <mxCell id="1fBMuFGvleZSVorCwz0i-34" value="Cplt Update ?" style="rhombus;whiteSpace=wrap;html=1;shadow=0;fontFamily=Helvetica;fontSize=12;align=center;strokeWidth=1;spacing=6;spacingTop=-4;" vertex="1" parent="1">
          <mxGeometry x="580" y="1100" width="100" height="80" as="geometry" />
        </mxCell>
        <mxCell id="1fBMuFGvleZSVorCwz0i-35" value="No" style="edgeStyle=orthogonalEdgeStyle;rounded=0;html=1;jettySize=auto;orthogonalLoop=1;fontSize=11;endArrow=block;endFill=0;endSize=8;strokeWidth=1;shadow=0;labelBackgroundColor=none;exitX=0;exitY=0.5;exitDx=0;exitDy=0;entryX=0;entryY=0.5;entryDx=0;entryDy=0;" edge="1" parent="1" source="1fBMuFGvleZSVorCwz0i-34" target="1fBMuFGvleZSVorCwz0i-28">
          <mxGeometry y="10" relative="1" as="geometry">
            <mxPoint as="offset" />
            <mxPoint x="460" y="1210" as="sourcePoint" />
            <mxPoint x="520" y="880" as="targetPoint" />
            <Array as="points">
              <mxPoint x="520" y="1140" />
              <mxPoint x="520" y="820" />
            </Array>
          </mxGeometry>
        </mxCell>
        <mxCell id="1fBMuFGvleZSVorCwz0i-36" value="Yes" style="rounded=0;html=1;jettySize=auto;orthogonalLoop=1;fontSize=11;endArrow=block;endFill=0;endSize=8;strokeWidth=1;shadow=0;labelBackgroundColor=none;edgeStyle=orthogonalEdgeStyle;exitX=0.5;exitY=1;exitDx=0;exitDy=0;entryX=0.5;entryY=0;entryDx=0;entryDy=0;" edge="1" parent="1" source="1fBMuFGvleZSVorCwz0i-34" target="1fBMuFGvleZSVorCwz0i-37">
          <mxGeometry x="-0.208" y="10" relative="1" as="geometry">
            <mxPoint as="offset" />
            <mxPoint x="629.71" y="1290" as="sourcePoint" />
            <mxPoint x="630" y="1340" as="targetPoint" />
          </mxGeometry>
        </mxCell>
        <mxCell id="1fBMuFGvleZSVorCwz0i-37" value="Deinit Peripheral" style="rounded=1;whiteSpace=wrap;html=1;fontSize=12;glass=0;strokeWidth=1;shadow=0;" vertex="1" parent="1">
          <mxGeometry x="572.5" y="1230" width="115" height="40" as="geometry" />
        </mxCell>
        <mxCell id="1fBMuFGvleZSVorCwz0i-38" value="Jump to application user&lt;br&gt;update" style="rounded=1;whiteSpace=wrap;html=1;fontSize=12;glass=0;strokeWidth=1;shadow=0;" vertex="1" parent="1">
          <mxGeometry x="555" y="1320" width="150" height="40" as="geometry" />
        </mxCell>
        <mxCell id="1fBMuFGvleZSVorCwz0i-39" value="" style="rounded=0;html=1;jettySize=auto;orthogonalLoop=1;fontSize=11;endArrow=block;endFill=0;endSize=8;strokeWidth=1;shadow=0;labelBackgroundColor=none;edgeStyle=orthogonalEdgeStyle;exitX=0.5;exitY=1;exitDx=0;exitDy=0;entryX=0.5;entryY=0;entryDx=0;entryDy=0;" edge="1" parent="1" source="1fBMuFGvleZSVorCwz0i-37" target="1fBMuFGvleZSVorCwz0i-38">
          <mxGeometry x="-0.208" y="10" relative="1" as="geometry">
            <mxPoint as="offset" />
            <mxPoint x="629.76" y="1390" as="sourcePoint" />
            <mxPoint x="629.76" y="1460" as="targetPoint" />
          </mxGeometry>
        </mxCell>
        <mxCell id="1fBMuFGvleZSVorCwz0i-40" value="Signal Reset&lt;br&gt;Device" style="rounded=0;whiteSpace=wrap;html=1;" vertex="1" parent="1">
          <mxGeometry x="590" y="220" width="80" height="50" as="geometry" />
        </mxCell>
        <mxCell id="1fBMuFGvleZSVorCwz0i-41" value="" style="rounded=0;html=1;jettySize=auto;orthogonalLoop=1;fontSize=11;endArrow=block;endFill=0;endSize=8;strokeWidth=1;shadow=0;labelBackgroundColor=none;edgeStyle=orthogonalEdgeStyle;exitX=0.5;exitY=1;exitDx=0;exitDy=0;entryX=0.5;entryY=0;entryDx=0;entryDy=0;" edge="1" parent="1" source="1fBMuFGvleZSVorCwz0i-40" target="1fBMuFGvleZSVorCwz0i-1">
          <mxGeometry relative="1" as="geometry">
            <mxPoint x="640" y="370" as="sourcePoint" />
            <mxPoint x="720" y="280" as="targetPoint" />
          </mxGeometry>
        </mxCell>
      </root>
    </mxGraphModel>
  </diagram>
</mxfile>
